<svg width="760" height="655" viewBox="0 0 760 655" fill="none" xmlns="http://www.w3.org/2000/svg">
<g opacity="0.5">
<path d="M694.564 521.367L570.716 540.447L547.111 560.557L694.564 521.367Z" stroke="#EAA833" stroke-width="0.75" stroke-miterlimit="10" stroke-linecap="round" stroke-linejoin="round"/>
<path d="M582.526 550.758L590.451 567.504L667.754 528.487" stroke="#EAA833" stroke-width="0.75" stroke-miterlimit="10" stroke-linecap="round" stroke-linejoin="round"/>
<path d="M581.019 538.655L577.422 531.573L689.785 522.218" stroke="#EAA833" stroke-width="0.75" stroke-miterlimit="10" stroke-linecap="round" stroke-linejoin="round"/>
<path d="M694.413 521.591L577.432 531.561L607.376 512.904L694.413 521.591Z" stroke="#EAA833" stroke-width="0.75" stroke-miterlimit="10" stroke-linecap="round" stroke-linejoin="round"/>
</g>
<g opacity="0.4">
<path d="M104.292 492.2L153.165 517.408C157.835 506.695 163.438 495.036 170.286 482.747C177.757 469.828 185.228 458.484 192.388 449.031C175.89 440.208 159.08 431.385 142.581 422.563C135.733 430.44 128.262 440.208 121.413 452.497C113.32 467.307 107.716 480.857 104.292 492.2Z" fill="#F8E68E"/>
<path d="M99 481.487L146.005 510.161C151.297 499.763 157.835 488.419 165.617 476.76C173.711 464.471 182.115 453.758 189.898 444.62C174.022 434.851 158.146 424.768 141.959 415C134.799 422.247 126.705 431.7 118.612 443.359C109.895 457.224 103.358 470.458 99 481.487Z" stroke="#EAA833" stroke-width="0.75" stroke-miterlimit="10" stroke-linecap="round" stroke-linejoin="round"/>
<path d="M111.452 475.5L145.072 495.981" stroke="#EAA833" stroke-width="0.75" stroke-miterlimit="10" stroke-linecap="round" stroke-linejoin="round"/>
<path d="M115.188 466.047L148.807 486.843" stroke="#EAA833" stroke-width="0.75" stroke-miterlimit="10" stroke-linecap="round" stroke-linejoin="round"/>
<path d="M140.402 431.385L174.022 452.182" stroke="#EAA833" stroke-width="0.75" stroke-miterlimit="10" stroke-linecap="round" stroke-linejoin="round"/>
<path d="M133.242 439.578L166.862 460.375" stroke="#EAA833" stroke-width="0.75" stroke-miterlimit="10" stroke-linecap="round" stroke-linejoin="round"/>
<path d="M126.083 448.401L159.703 469.198" stroke="#EAA833" stroke-width="0.75" stroke-miterlimit="10" stroke-linecap="round" stroke-linejoin="round"/>
<path d="M119.856 457.539L153.476 478.021" stroke="#EAA833" stroke-width="0.75" stroke-miterlimit="10" stroke-linecap="round" stroke-linejoin="round"/>
</g>
<path d="M574.36 193.752C574.36 193.437 568.757 165.077 568.757 165.077C568.757 165.077 587.746 99.8512 589.925 95.7548C595.839 84.7262 606.112 86.3018 608.914 98.2757C611.715 110.25 586.189 178.942 586.189 178.942L574.36 193.752Z" fill="#F8E68E"/>
<path d="M565.956 167.283L568.758 182.093L570.314 191.231L575.917 184.614L584.945 173.27" stroke="#EAA833" stroke-width="0.75" stroke-miterlimit="10" stroke-linecap="round" stroke-linejoin="round"/>
<path d="M568.758 182.093L570.314 191.231L575.918 184.614L568.758 182.093Z" stroke="#EAA833" stroke-width="0.75" stroke-miterlimit="10" stroke-linecap="round" stroke-linejoin="round"/>
<path d="M604.245 107.414L584.945 173.27L574.05 176.106L565.956 167.283L584.945 101.427L604.245 107.414Z" stroke="#EAA833" stroke-width="0.75" stroke-miterlimit="10" stroke-linecap="round" stroke-linejoin="round"/>
<path d="M604.245 107.414C604.245 107.414 610.471 94.8096 599.575 91.0283C587.124 86.6169 585.256 101.742 585.256 101.742L604.245 107.414Z" stroke="#EAA833" stroke-width="0.75" stroke-miterlimit="10" stroke-linecap="round" stroke-linejoin="round"/>
<path d="M580.276 106.783L605.18 114.346" stroke="#EAA833" stroke-width="0.75" stroke-miterlimit="10" stroke-linecap="round" stroke-linejoin="round"/>
<path d="M582.144 101.112L606.736 108.674" stroke="#EAA833" stroke-width="0.75" stroke-miterlimit="10" stroke-linecap="round" stroke-linejoin="round"/>
<path d="M574.05 176.106L592.727 110.88" stroke="#EAA833" stroke-width="0.75" stroke-miterlimit="10" stroke-linecap="round" stroke-linejoin="round"/>
<path d="M570.314 191.231C570.314 191.231 596.152 206.986 595.529 212.973C593.661 229.044 485.642 167.599 468.833 190.286C452.023 212.973 605.491 302.463 611.405 304.668" stroke="#EAA833" stroke-width="0.75" stroke-miterlimit="10" stroke-linecap="round" stroke-linejoin="round"/>
<path d="M16.0838 66.5799L-19.2282 58.3058C-19.2282 58.3058 -23.1518 58.3058 -20.6996 52.0175C-18.4108 45.7292 -1.73572 1.71099 -1.73572 1.71099C-1.73572 1.71099 3.49569 -1.10221 21.8056 2.86935C34.3937 5.51706 37.8268 10.4815 37.8268 10.4815C37.8268 10.4815 45.6739 7.9993 58.0985 10.647C70.3596 13.4602 80.332 17.9282 80.6589 19.2521C80.9859 20.5759 61.3681 74.6885 61.3681 74.6885L16.0838 66.5799Z" stroke="#EAA833" stroke-width="0.75" stroke-miterlimit="10" stroke-linecap="round" stroke-linejoin="round"/>
<path d="M80.3312 19.2521C80.6582 20.5759 61.2039 74.523 61.2039 74.523L16.083 66.5799C16.083 66.5799 16.9004 70.386 18.0448 71.3788C19.1892 72.2063 62.5118 79.9839 62.5118 79.9839L82.62 25.7059L80.3312 19.2521Z" stroke="#EAA833" stroke-width="0.75" stroke-miterlimit="10" stroke-linecap="round" stroke-linejoin="round"/>
<path d="M17.8816 71.2133C19.026 72.0407 62.3486 79.8184 62.3486 79.8184L82.6203 25.7058C82.6203 25.7058 85.8899 26.3678 84.582 30.8358C83.4377 35.3038 64.9643 84.2864 64.9643 84.2864L18.372 75.1849C18.372 75.1849 15.1024 75.3504 14.285 73.0336C13.4676 70.7169 12.1597 69.8895 12.1597 69.8895C12.1597 69.8895 -19.0652 63.2702 -22.0079 62.1118C-24.7871 60.9535 -26.9123 59.9606 -25.6045 54.4997C-24.2966 49.0388 -7.785 5.18609 -7.785 5.18609C-7.785 5.18609 -6.47715 1.71097 -2.39011 2.70386" stroke="#EAA833" stroke-width="0.75" stroke-miterlimit="10" stroke-linecap="round" stroke-linejoin="round"/>
<path d="M16.083 66.5798L35.8643 13.2947" stroke="#EAA833" stroke-width="0.75" stroke-miterlimit="10" stroke-linecap="round" stroke-linejoin="round"/>
<path d="M29.1615 51.5211C26.5458 51.6866 25.4014 51.0246 26.0554 48.046C26.8728 45.2328 39.4608 10.6471 39.4608 10.6471C39.4608 10.6471 37.3356 9.81966 37.826 9.32321C38.153 8.82677 39.4608 6.51003 42.24 7.99936C44.8557 9.4887 42.567 12.4674 42.24 14.9496C41.7496 17.4318 29.1615 51.5211 29.1615 51.5211Z" fill="#EAA833"/>
<path d="M1.86035 7.17188L31.4505 12.7982" stroke="#EAA833" stroke-width="0.75" stroke-miterlimit="10" stroke-linecap="round" stroke-linejoin="round"/>
<path d="M-0.264648 12.7982L29.3255 18.4246" stroke="#EAA833" stroke-width="0.75" stroke-miterlimit="10" stroke-linecap="round" stroke-linejoin="round"/>
<path d="M-2.7168 18.4246L26.8733 24.051" stroke="#EAA833" stroke-width="0.75" stroke-miterlimit="10" stroke-linecap="round" stroke-linejoin="round"/>
<path d="M-4.67871 23.8856L24.9114 29.5119" stroke="#EAA833" stroke-width="0.75" stroke-miterlimit="10" stroke-linecap="round" stroke-linejoin="round"/>
<path d="M-5.98633 30.0084L23.4403 35.6348" stroke="#EAA833" stroke-width="0.75" stroke-miterlimit="10" stroke-linecap="round" stroke-linejoin="round"/>
<path d="M-8.1123 35.1384L21.3144 40.7648" stroke="#EAA833" stroke-width="0.75" stroke-miterlimit="10" stroke-linecap="round" stroke-linejoin="round"/>
<path d="M-10.5645 40.5992L18.8622 46.2256" stroke="#EAA833" stroke-width="0.75" stroke-miterlimit="10" stroke-linecap="round" stroke-linejoin="round"/>
<path d="M-12.8525 45.7292L16.7376 51.3556" stroke="#EAA833" stroke-width="0.75" stroke-miterlimit="10" stroke-linecap="round" stroke-linejoin="round"/>
<path d="M-14.4873 52.1829L15.1028 57.6438" stroke="#EAA833" stroke-width="0.75" stroke-miterlimit="10" stroke-linecap="round" stroke-linejoin="round"/>
<path d="M44.5293 15.777L74.1194 21.2379" stroke="#EAA833" stroke-width="0.75" stroke-miterlimit="10" stroke-linecap="round" stroke-linejoin="round"/>
<path d="M42.4043 21.4034L71.831 27.0297" stroke="#EAA833" stroke-width="0.75" stroke-miterlimit="10" stroke-linecap="round" stroke-linejoin="round"/>
<path d="M39.9512 27.0297L69.3778 32.6561" stroke="#EAA833" stroke-width="0.75" stroke-miterlimit="10" stroke-linecap="round" stroke-linejoin="round"/>
<path d="M37.9893 32.4907L67.5794 37.9516" stroke="#EAA833" stroke-width="0.75" stroke-miterlimit="10" stroke-linecap="round" stroke-linejoin="round"/>
<path d="M36.6826 38.6135L66.1093 44.2398" stroke="#EAA833" stroke-width="0.75" stroke-miterlimit="10" stroke-linecap="round" stroke-linejoin="round"/>
<path d="M34.3926 43.7434L63.9827 49.3698" stroke="#EAA833" stroke-width="0.75" stroke-miterlimit="10" stroke-linecap="round" stroke-linejoin="round"/>
<path d="M31.9404 49.2043L61.5306 54.8307" stroke="#EAA833" stroke-width="0.75" stroke-miterlimit="10" stroke-linecap="round" stroke-linejoin="round"/>
<path d="M29.8154 54.3342L59.2421 59.9606" stroke="#EAA833" stroke-width="0.75" stroke-miterlimit="10" stroke-linecap="round" stroke-linejoin="round"/>
<path d="M28.1807 60.6225L57.6073 66.2489" stroke="#EAA833" stroke-width="0.75" stroke-miterlimit="10" stroke-linecap="round" stroke-linejoin="round"/>
<path d="M57.6393 523.371C59.3585 523.371 60.7522 521.96 60.7522 520.22C60.7522 518.48 59.3585 517.069 57.6393 517.069C55.9201 517.069 54.5264 518.48 54.5264 520.22C54.5264 521.96 55.9201 523.371 57.6393 523.371Z" fill="#EAA833"/>
<path d="M201.457 487.45C203.176 487.45 204.57 486.039 204.57 484.299C204.57 482.558 203.176 481.148 201.457 481.148C199.737 481.148 198.344 482.558 198.344 484.299C198.344 486.039 199.737 487.45 201.457 487.45Z" fill="#EAA833"/>
<path d="M518.355 414.031C520.074 414.031 521.468 412.62 521.468 410.88C521.468 409.139 520.074 407.729 518.355 407.729C516.636 407.729 515.242 409.139 515.242 410.88C515.242 412.62 516.636 414.031 518.355 414.031Z" fill="#EAA833"/>
<path d="M559.445 148.714C561.164 148.714 562.558 147.303 562.558 145.563C562.558 143.823 561.164 142.412 559.445 142.412C557.726 142.412 556.332 143.823 556.332 145.563C556.332 147.303 557.726 148.714 559.445 148.714Z" fill="#EAA833"/>
<path d="M122.077 123.19V137.055" stroke="#EAA833" stroke-width="0.75" stroke-miterlimit="10" stroke-linecap="round" stroke-linejoin="round"/>
<path d="M128.925 130.123H115.229" stroke="#EAA833" stroke-width="0.75" stroke-miterlimit="10" stroke-linecap="round" stroke-linejoin="round"/>
<path d="M543.569 601.516V615.381" stroke="#EAA833" stroke-width="0.75" stroke-miterlimit="10" stroke-linecap="round" stroke-linejoin="round"/>
<path d="M550.418 608.449H536.721" stroke="#EAA833" stroke-width="0.75" stroke-miterlimit="10" stroke-linecap="round" stroke-linejoin="round"/>
<path d="M419.985 436.088V449.953" stroke="#EAA833" stroke-width="0.75" stroke-miterlimit="10" stroke-linecap="round" stroke-linejoin="round"/>
<path d="M426.834 443.02H413.137" stroke="#EAA833" stroke-width="0.75" stroke-miterlimit="10" stroke-linecap="round" stroke-linejoin="round"/>
<path d="M433.684 121.93V135.795" stroke="#EAA833" stroke-width="0.75" stroke-miterlimit="10" stroke-linecap="round" stroke-linejoin="round"/>
<path d="M440.532 128.862H426.835" stroke="#EAA833" stroke-width="0.75" stroke-miterlimit="10" stroke-linecap="round" stroke-linejoin="round"/>
<path d="M153.206 655.084V668.633" stroke="#EAA833" stroke-width="0.75" stroke-miterlimit="10" stroke-linecap="round" stroke-linejoin="round"/>
<path d="M729.119 203.882L691.937 223.081C691.937 223.081 688.557 225.932 686.116 218.709C683.674 211.486 666.022 160.353 666.022 160.353C666.022 160.353 668.651 154.08 687.43 143.625C700.387 136.402 706.96 138.493 706.96 138.493C706.96 138.493 712.03 130.319 724.8 123.666C737.569 116.823 749.588 113.402 750.902 114.352C752.217 115.303 774.563 177.46 774.563 177.46L729.119 203.882Z" stroke="#EAA833" stroke-width="0.75" stroke-miterlimit="10" stroke-linecap="round" stroke-linejoin="round"/>
<path d="M751.091 114.352C752.406 115.303 774.565 177.27 774.565 177.27L729.12 204.072C729.12 204.072 732.688 206.924 734.19 206.734C735.693 206.543 779.635 180.882 779.635 180.882L757.852 118.154L751.091 114.352Z" stroke="#EAA833" stroke-width="0.75" stroke-miterlimit="10" stroke-linecap="round" stroke-linejoin="round"/>
<path d="M734.19 206.734C735.692 206.734 779.634 180.882 779.634 180.882L757.851 118.154C757.851 118.154 761.231 116.443 763.297 121.195C765.55 125.947 785.08 182.783 785.08 182.783L737.382 209.585C737.382 209.585 734.565 212.246 732.124 210.725C729.683 209.205 727.993 209.585 727.993 209.585C727.993 209.585 695.693 227.073 692.313 228.403C689.121 229.544 686.304 230.304 683.675 224.411C680.858 218.519 663.394 167.766 663.394 167.766C663.394 167.766 662.08 163.774 666.211 161.493" stroke="#EAA833" stroke-width="0.75" stroke-miterlimit="10" stroke-linecap="round" stroke-linejoin="round"/>
<path d="M729.12 203.882L707.712 142.295" stroke="#EAA833" stroke-width="0.75" stroke-miterlimit="10" stroke-linecap="round" stroke-linejoin="round"/>
<path d="M729.683 180.882C727.43 182.973 725.927 183.163 724.425 180.122C722.923 177.08 708.839 137.162 708.839 137.162C708.839 137.162 706.398 138.113 706.398 137.353C706.398 136.592 705.834 133.551 709.214 132.981C712.594 132.41 712.782 136.592 714.285 139.063C715.787 141.534 729.683 180.882 729.683 180.882Z" fill="#EAA833"/>
<path d="M673.347 162.254L703.393 145.146" stroke="#EAA833" stroke-width="0.75" stroke-miterlimit="10" stroke-linecap="round" stroke-linejoin="round"/>
<path d="M675.601 168.907L705.459 151.799" stroke="#EAA833" stroke-width="0.75" stroke-miterlimit="10" stroke-linecap="round" stroke-linejoin="round"/>
<path d="M677.479 175.75L707.524 158.642" stroke="#EAA833" stroke-width="0.75" stroke-miterlimit="10" stroke-linecap="round" stroke-linejoin="round"/>
<path d="M679.731 181.832L709.777 164.725" stroke="#EAA833" stroke-width="0.75" stroke-miterlimit="10" stroke-linecap="round" stroke-linejoin="round"/>
<path d="M683.111 188.485L713.157 171.188" stroke="#EAA833" stroke-width="0.75" stroke-miterlimit="10" stroke-linecap="round" stroke-linejoin="round"/>
<path d="M684.99 194.568L715.036 177.27" stroke="#EAA833" stroke-width="0.75" stroke-miterlimit="10" stroke-linecap="round" stroke-linejoin="round"/>
<path d="M686.68 201.031L716.726 183.923" stroke="#EAA833" stroke-width="0.75" stroke-miterlimit="10" stroke-linecap="round" stroke-linejoin="round"/>
<path d="M688.558 207.304L718.604 190.006" stroke="#EAA833" stroke-width="0.75" stroke-miterlimit="10" stroke-linecap="round" stroke-linejoin="round"/>
<path d="M691.75 214.147L721.796 196.849" stroke="#EAA833" stroke-width="0.75" stroke-miterlimit="10" stroke-linecap="round" stroke-linejoin="round"/>
<path d="M717.102 137.923L746.96 120.815" stroke="#EAA833" stroke-width="0.75" stroke-miterlimit="10" stroke-linecap="round" stroke-linejoin="round"/>
<path d="M719.354 144.576L749.213 127.278" stroke="#EAA833" stroke-width="0.75" stroke-miterlimit="10" stroke-linecap="round" stroke-linejoin="round"/>
<path d="M721.232 151.419L751.278 134.121" stroke="#EAA833" stroke-width="0.75" stroke-miterlimit="10" stroke-linecap="round" stroke-linejoin="round"/>
<path d="M723.486 157.501L753.532 140.394" stroke="#EAA833" stroke-width="0.75" stroke-miterlimit="10" stroke-linecap="round" stroke-linejoin="round"/>
<path d="M726.866 163.964L756.912 146.857" stroke="#EAA833" stroke-width="0.75" stroke-miterlimit="10" stroke-linecap="round" stroke-linejoin="round"/>
<path d="M728.744 170.047L758.79 152.939" stroke="#EAA833" stroke-width="0.75" stroke-miterlimit="10" stroke-linecap="round" stroke-linejoin="round"/>
<path d="M730.435 176.7L760.481 159.592" stroke="#EAA833" stroke-width="0.75" stroke-miterlimit="10" stroke-linecap="round" stroke-linejoin="round"/>
<path d="M732.312 182.783L762.358 165.675" stroke="#EAA833" stroke-width="0.75" stroke-miterlimit="10" stroke-linecap="round" stroke-linejoin="round"/>
<path d="M735.505 189.626L765.551 172.518" stroke="#EAA833" stroke-width="0.75" stroke-miterlimit="10" stroke-linecap="round" stroke-linejoin="round"/>
<path d="M88.8161 192.816L56.4283 210.802L15.0439 229.015L32.5873 217.176L88.8161 192.816Z" fill="#5686F7"/>
<path d="M55.7528 210.346C63.3999 206.931 88.8153 192.816 88.8153 192.816C88.8153 192.816 86.3412 206.021 63.1749 218.77C60.251 220.364 57.1022 221.957 53.7285 223.323L55.7528 210.346Z" fill="white"/>
<path d="M63.1749 218.77C60.251 220.364 57.1022 221.957 53.7285 223.323L55.7528 210.346C55.7528 210.346 56.4275 210.119 57.777 211.485C61.1507 215.355 63.1749 218.77 63.1749 218.77Z" fill="black"/>
<path d="M54.4034 215.355C64.7495 225.145 68.573 267.263 68.573 267.263L49.9051 270.906L29.2129 275.004L50.5798 218.542L54.4034 215.355Z" fill="white"/>
<path d="M68.573 267.263L49.9051 270.906L29.2129 275.004L50.5798 218.542C50.5798 218.542 51.7044 214.217 55.7529 229.698C59.8013 245.18 60.0262 265.214 60.0262 265.214L68.573 267.263Z" fill="black"/>
<path d="M0.873005 240.399L-4.97477 278.647L-6.99902 292.534L44.7314 275.687C44.7314 275.687 61.6001 238.577 52.3786 218.315L0.873005 240.399Z" fill="black"/>
<path d="M56.2021 213.534C66.3233 254.059 47.6553 280.013 47.6553 280.013L-0.476466 294.356L-6.99902 292.307L44.7314 275.459C44.7314 275.459 61.6001 238.35 52.3786 218.087L54.4028 215.127C54.4028 215.355 56.2021 213.306 56.2021 213.534Z" fill="white"/>
<path d="M0.873945 240.399L-22.0674 288.892L26.2894 273.638L52.3795 218.315L0.873945 240.399Z" fill="#5686F7"/>
<path d="M52.38 218.315L0.874439 240.398C0.874439 240.398 -2.72421 235.162 2.44884 228.787L54.1793 205.793C54.1793 205.793 46.7571 211.029 52.38 218.315Z" fill="#5686F7"/>
<path d="M56.2033 213.534L56.4282 210.802C56.4282 210.802 72.3972 231.519 76.2207 258.84L68.7985 267.491C68.7985 267.491 64.975 225.145 54.6289 215.583L56.2033 213.534Z" fill="white"/>
<path d="M52.3793 218.315C46.7565 211.029 54.1786 205.793 54.1786 205.793C57.1025 205.338 58.0022 209.436 56.4278 213.534C55.0783 216.721 52.3793 218.315 52.3793 218.315Z" fill="black"/>
<path d="M3.12305 239.033L50.5801 218.542" stroke="black" stroke-miterlimit="10"/>
<path d="M54.4033 215.355C54.4033 215.355 67.4484 232.43 68.573 267.263" stroke="black" stroke-miterlimit="10"/>
<path d="M57.7773 257.474C58.9019 249.05 60.2514 241.081 58.9019 232.658" stroke="black" stroke-miterlimit="10"/>
<path d="M88.8164 192.816L55.7539 210.346C55.7539 210.346 58.0031 213.078 58.4529 213.078C58.9027 213.078 70.1485 206.476 74.8717 203.516C81.3942 199.191 88.8164 192.816 88.8164 192.816Z" fill="black"/>
<path d="M60.7012 216.038C60.7012 216.038 75.3206 208.07 80.0438 203.289" stroke="black" stroke-miterlimit="10"/>
<path d="M230.071 142.879L229.043 139.757C229.043 139.757 252.431 128.83 262.712 125.708C262.712 125.708 266.824 121.806 265.025 115.302C263.74 110.879 261.684 103.075 256.543 103.595C251.66 104.115 221.075 119.985 221.075 119.985L219.79 116.343L255.258 100.473L323.881 86.4243C328.508 85.6438 333.391 89.8064 335.447 96.5705C336.732 100.473 335.961 106.977 334.419 110.879L269.394 127.79L230.071 142.879Z" fill="#E06A4F"/>
<path d="M334.42 110.619L269.395 127.53L230.071 142.879L274.535 135.595L334.42 110.619Z" fill="#2D2D2D"/>
<path d="M283.53 98.912L324.91 90.3267" stroke="#2D2D2D" stroke-miterlimit="10" stroke-linecap="round" stroke-linejoin="round"/>
<path d="M230.842 138.717C236.753 136.115 254.23 128.31 262.712 125.709C262.712 125.709 266.824 121.806 265.025 115.302C263.74 110.879 261.684 103.075 256.543 103.595C252.431 104.115 231.099 114.782 223.645 118.424C223.131 118.944 229.814 139.237 230.842 138.717Z" fill="white"/>
<path d="M262.712 125.709C262.712 125.709 266.824 121.806 265.025 115.302C263.74 110.879 261.684 103.075 256.543 103.595C252.431 104.115 231.099 114.782 223.646 118.424L250.889 108.798C255.772 106.977 261.427 109.839 262.712 114.782C262.712 114.782 262.712 114.782 262.712 115.042C264.254 120.765 262.969 124.928 262.712 125.709Z" fill="#2D2D2D"/>
<path d="M227.758 122.066L253.459 111.92C253.459 111.92 251.146 115.042 246.006 117.383C240.866 119.725 227.758 122.066 227.758 122.066Z" fill="#2D2D2D"/>
<path d="M239.58 127.53L265.282 117.383C265.282 117.383 262.968 120.505 257.828 122.847C252.688 125.188 239.58 127.53 239.58 127.53Z" fill="#2D2D2D"/>
<path d="M271.451 125.188C271.451 125.188 276.077 116.343 265.025 104.115" stroke="#2D2D2D" stroke-miterlimit="10" stroke-linecap="round" stroke-linejoin="round"/>
<mask id="mask0_3096_14432" style="mask-type:alpha" maskUnits="userSpaceOnUse" x="236" y="232" width="288" height="288">
<circle cx="380.19" cy="375.953" r="143.758" fill="#D9D9D9"/>
</mask>
<g mask="url(#mask0_3096_14432)">
<circle cx="380.19" cy="375.953" r="143.758" fill="#EFBD5C"/>
<path d="M308.211 367.083C293.83 400.812 285.725 492.849 304.028 511.151C351.353 557.692 435.545 487.619 453.848 457.028C464.829 438.463 455.94 378.588 428.486 339.368C415.674 321.065 335.404 302.762 308.211 367.083Z" fill="#F8E68E"/>
<path d="M349.523 528.408C332.527 529.715 303.243 526.839 299.844 488.142C296.445 449.445 308.211 337.537 361.812 324.464C415.412 311.391 446.788 344.336 456.463 367.345C466.398 390.615 410.183 523.44 349.523 528.408Z" stroke="#EAA833" stroke-miterlimit="10"/>
<path d="M336.449 521.087C322.853 516.903 308.734 487.88 310.825 454.674C312.917 421.468 324.945 358.455 335.665 347.212C346.385 335.968 362.334 337.014 376.453 341.459C390.573 345.904 421.687 328.124 433.453 350.088C445.742 372.051 336.449 521.087 336.449 521.087Z" fill="#F8E68E"/>
<path d="M324.944 525.532C317.1 511.674 300.628 498.339 318.669 398.198" stroke="#EAA833" stroke-miterlimit="10"/>
<path d="M536.21 263.281L520.522 283.152L504.834 265.372C507.449 264.065 511.632 261.712 515.554 257.006C519.999 251.776 518.692 248.377 519.215 245.501C523.921 252.299 531.504 257.006 536.21 263.281Z" fill="#FFCFAC"/>
<path d="M545.623 225.629C553.467 232.166 563.403 244.978 554.513 256.221C547.976 264.588 540.132 265.895 534.118 264.849C526.797 263.542 517.123 251.514 519.476 246.024C520.784 243.409 523.137 238.703 528.105 233.212C529.151 231.904 533.596 229.551 534.38 228.244C538.825 220.4 542.224 223.015 545.623 225.629Z" fill="#FFCFAC"/>
<path d="M518.953 248.116C519.738 241.84 514.77 223.276 515.031 219.616C515.293 215.955 518.169 212.033 521.307 214.125C524.444 216.217 528.889 233.996 527.32 239.487C525.752 245.239 518.953 248.116 518.953 248.116Z" fill="#FFCFAC"/>
<path d="M212.253 280.538L224.542 303.024L243.367 288.382C241.014 286.813 237.092 283.414 233.955 278.185C230.556 272.432 232.386 269.033 232.124 266.157C226.372 271.648 217.744 275.047 212.253 280.538Z" fill="#FFCFAC"/>
<path d="M231.862 268.51C232.124 262.235 240.229 244.978 240.752 241.056C241.014 237.134 238.922 233.212 235.261 234.519C231.601 236.088 224.28 252.561 225.064 258.574C225.849 264.588 231.862 268.51 231.862 268.51Z" fill="#FFCFAC"/>
<path d="M535.686 266.419C535.686 266.419 518.691 248.116 513.723 253.084C509.539 257.529 506.925 260.666 506.925 260.666C506.925 260.666 525.489 275.57 530.457 282.63C530.718 282.891 538.562 274.263 535.686 266.419Z" fill="black"/>
<path d="M419.596 350.611C436.068 336.23 451.233 321.85 479.733 283.937C489.93 270.341 492.806 268.772 506.926 260.666C515.031 255.96 530.457 282.63 530.457 282.63C535.948 291.52 533.072 314.267 515.815 341.721C495.16 374.404 462.476 423.299 462.476 423.299C462.476 423.299 458.816 411.794 447.573 407.088C436.33 402.381 419.596 350.611 419.596 350.611Z" fill="#E06A4F"/>
<path d="M469.012 401.074C469.012 401.074 467.444 372.313 456.462 360.285" stroke="#242424" stroke-width="0.5408" stroke-miterlimit="10" stroke-linecap="round" stroke-linejoin="round"/>
<path d="M467.705 513.504L468.489 517.949C468.489 517.949 459.599 522.917 424.563 526.316C388.219 529.715 345.6 528.146 340.37 525.793C335.141 523.44 335.664 520.564 335.664 520.564C335.664 520.564 395.017 513.243 421.686 511.936C448.356 510.628 470.581 501.215 467.705 513.504Z" fill="#F3D43E"/>
<path d="M422.995 351.918L380.115 353.487L356.321 350.087L318.67 398.459C318.67 398.459 339.326 405.78 329.39 437.94C322.592 459.642 323.638 518.733 335.665 520.564C335.665 520.564 365.472 519.779 432.669 511.674C452.018 509.321 469.013 503.045 467.706 513.504C467.706 513.504 467.183 488.926 466.921 454.936C466.66 424.605 466.921 415.193 465.614 396.89C465.614 397.151 456.986 351.395 422.995 351.918Z" fill="#E06A4F"/>
<path d="M422.995 351.918C430.316 347.735 438.683 349.303 445.481 354.271C452.018 359.501 465.353 374.143 465.614 396.89C465.876 419.638 466.921 431.665 466.921 431.665C466.921 431.665 448.096 380.418 438.422 367.867C428.747 355.317 422.995 351.918 422.995 351.918Z" fill="#F8E68E"/>
<path d="M467.183 432.45C467.183 432.45 450.972 381.202 442.344 366.822C432.931 351.395 420.903 352.18 420.903 352.18C435.545 342.505 452.018 345.643 460.123 369.698C463.784 380.418 466.137 392.184 467.444 406.042" stroke="#EAA833" stroke-miterlimit="10" stroke-linecap="round" stroke-linejoin="round"/>
<path d="M366.519 329.955L377.239 354.533C383.775 361.331 403.908 364.207 409.138 363.161C416.72 361.854 423.257 359.239 421.949 357.147C419.858 350.088 416.459 337.799 414.105 330.739L366.519 329.955Z" fill="#FFCFAC"/>
<path d="M420.903 352.179L414.366 331L367.041 329.693L420.903 352.179Z" fill="#242424"/>
<path d="M346.385 264.588C351.353 242.886 366.518 217.524 380.375 206.542C397.109 193.208 412.274 209.419 405.215 222.492C405.215 222.492 424.825 214.648 430.315 221.185C435.806 227.721 415.935 247.07 413.843 249.161C411.49 251.515 346.385 264.588 346.385 264.588Z" fill="black"/>
<path d="M417.504 243.932C420.119 236.088 429.793 225.629 436.852 246.547C439.467 253.868 440.252 269.033 440.252 269.033L417.504 243.932Z" fill="black"/>
<path d="M380.376 239.749C359.197 242.886 338.28 262.758 346.385 295.964C355.014 330.477 368.871 341.198 401.293 338.583C437.375 335.707 447.834 306.684 448.096 290.996C448.357 272.955 431.362 243.409 412.798 239.226C404.954 237.395 391.619 238.18 380.376 239.749Z" fill="#FFCFAC"/>
<path d="M384.725 289.266C384.907 282.77 380.141 277.366 374.078 277.196C368.016 277.026 362.953 282.154 362.771 288.649C362.588 295.145 367.355 300.548 373.418 300.719C379.48 300.889 384.543 295.761 384.725 289.266Z" fill="#EBB3B0"/>
<path d="M440.238 288.004C443.495 286.821 444.617 281.68 442.744 276.523C440.87 271.365 436.711 268.143 433.454 269.327C430.196 270.51 429.074 275.65 430.948 280.808C432.821 285.965 436.98 289.187 440.238 288.004Z" fill="#EBB3B0"/>
<path d="M350.045 300.148C353.444 305.638 355.275 296.487 356.321 292.304C358.151 285.505 348.215 277.139 348.215 277.139C348.215 277.139 355.536 264.588 357.628 257.267C359.981 249.946 356.844 247.07 353.183 250.73C353.183 250.73 342.724 224.845 335.926 242.102C328.867 260.143 337.495 285.767 337.495 285.767C337.495 285.767 333.312 287.597 334.096 295.964C334.88 304.07 359.981 330.216 362.073 331.785C380.376 344.335 350.045 300.148 350.045 300.148Z" fill="black"/>
<path d="M431.623 252.822C429.532 249.946 426.917 247.07 423.779 245.762C419.857 243.932 416.458 246.285 415.935 250.469C415.674 251.776 417.504 252.822 418.289 251.515C418.812 250.207 419.596 248.377 421.165 248.377C422.472 248.116 424.041 249.161 425.087 249.946C427.179 251.253 428.747 253.083 430.578 254.652C431.362 255.175 432.408 253.868 431.623 252.822Z" fill="#242424"/>
<path d="M388.742 253.607C382.99 248.116 374.885 246.286 368.086 250.992C362.596 254.653 358.412 262.235 359.72 269.033C359.72 269.556 360.765 269.556 360.765 269.033C362.596 263.804 364.164 258.836 368.609 254.914C374.623 249.423 381.16 251.776 387.174 255.698C388.481 256.483 389.788 254.653 388.742 253.607Z" fill="#242424"/>
<path d="M364.165 315.313C356.844 320.281 347.692 311.652 344.816 306.684C341.94 301.717 345.078 292.304 354.49 298.579L364.165 315.313Z" fill="#FFCFAC"/>
<path d="M334.619 283.675C327.56 276.093 328.344 269.818 328.344 269.818L334.619 283.675Z" fill="black"/>
<path d="M330.697 287.075C323.376 287.859 320.762 292.827 320.762 292.827L330.697 287.075Z" fill="black"/>
<path d="M378.546 335.446C378.546 335.446 387.959 339.629 403.908 341.198" stroke="#242424" stroke-width="0.5408" stroke-miterlimit="10" stroke-linecap="round" stroke-linejoin="round"/>
<path d="M423.256 312.96C420.38 314.79 414.889 315.836 408.614 314.79C404.169 314.006 399.201 312.175 394.756 308.776C387.958 303.547 385.082 297.272 382.206 291.258C381.944 290.474 381.422 289.689 381.944 288.905C382.206 288.12 382.729 287.859 383.513 287.597C391.357 283.414 399.201 280.015 407.83 278.708C415.412 277.662 422.995 278.185 429.793 281.322C431.362 282.107 432.407 283.414 432.407 285.244C432.93 291.258 434.761 305.377 423.256 312.96Z" fill="#242424"/>
<path d="M423.257 312.96C420.381 314.79 414.89 315.836 408.615 314.79C404.17 314.005 399.202 312.175 394.757 308.776C394.757 308.776 398.417 300.932 407.83 302.762C417.243 304.593 423.257 312.96 423.257 312.96Z" fill="#EBB3B0"/>
<path d="M388.481 264.326C386.389 261.973 383.252 261.973 380.637 263.281C378.284 264.326 376.192 266.68 375.669 269.033C375.408 269.556 375.931 270.34 376.454 270.602C376.976 270.863 377.761 270.34 378.022 269.817C378.022 269.556 378.022 269.294 378.284 269.033C378.284 268.771 378.284 269.294 378.284 269.033C378.284 269.033 378.284 268.771 378.545 268.771C378.807 268.248 379.068 267.987 379.33 267.726C380.114 266.941 380.898 266.418 381.683 265.895C382.206 265.634 382.467 265.634 382.99 265.372C383.252 265.372 383.252 265.372 383.513 265.372C383.513 265.372 384.036 265.372 383.775 265.372C384.036 265.372 384.298 265.372 384.559 265.372H384.82C384.559 265.372 385.082 265.372 385.082 265.372C385.343 265.372 385.343 265.372 385.605 265.372C385.605 265.372 385.866 265.634 385.866 265.372C386.389 265.634 386.651 265.895 387.174 266.157C387.697 267.203 389.527 265.634 388.481 264.326Z" fill="#242424"/>
<path d="M425.61 261.189C425.348 261.45 425.61 261.189 425.61 261.189C425.61 260.928 425.61 260.928 425.61 261.189C425.871 260.928 425.871 260.666 425.61 261.189C425.871 260.928 425.871 260.928 426.133 260.928C426.133 260.928 426.394 260.928 426.133 260.928C425.871 260.928 426.133 260.928 426.133 260.928H426.394C426.133 260.928 426.655 260.928 426.394 260.928C426.655 260.928 426.655 260.928 426.917 260.928C426.917 260.928 427.178 260.928 426.917 260.928H427.178C427.44 260.928 427.44 260.928 427.701 261.189C427.701 261.189 427.963 261.45 427.701 261.189H427.963C428.224 261.45 428.747 261.45 429.009 261.712C429.009 261.712 429.27 261.712 429.27 261.973C429.27 261.973 429.532 262.235 429.27 261.973C429.532 262.235 429.532 262.235 429.793 262.496C430.577 263.019 431.1 263.804 431.623 264.327C432.146 264.85 432.931 264.85 433.454 264.327C433.977 263.804 433.977 263.019 433.454 262.496C432.146 260.928 430.577 259.359 428.747 258.574C427.963 258.313 426.917 258.051 426.133 258.313C425.087 258.574 424.302 259.097 423.779 259.882C423.518 260.405 423.779 261.189 424.302 261.45C424.564 261.973 425.087 261.712 425.61 261.189Z" fill="#242424"/>
<path d="M408.091 254.13C408.091 258.836 424.825 263.281 422.994 265.634C421.164 267.987 416.458 271.909 414.105 273.478" stroke="black" stroke-width="1.0831" stroke-miterlimit="10" stroke-linecap="round" stroke-linejoin="round"/>
<path d="M430.316 292.042C430.316 288.12 430.577 285.506 429.532 283.937C428.486 282.368 415.674 278.969 404.692 282.107C393.972 285.244 385.344 290.212 385.344 290.212L389.266 297.272C389.266 297.272 399.201 289.951 412.275 289.166C424.564 288.382 430.316 292.042 430.316 292.042Z" fill="#FFCFAC"/>
<path d="M244.151 276.877C240.229 268.51 233.954 266.68 226.11 270.863C218.266 275.047 208.069 277.4 209.114 284.721C209.899 292.042 220.096 302.239 220.096 302.239L244.151 276.877Z" fill="black"/>
<path d="M330.435 432.188C330.435 432.188 278.403 394.799 250.688 357.932C222.972 321.065 214.605 295.964 214.605 295.964C214.605 295.964 236.83 272.171 243.105 277.662C269.252 300.409 297.752 320.542 297.752 320.542C297.752 320.542 336.187 340.675 343.247 345.12C373.054 363.161 359.981 368.913 357.366 375.711C348.476 399.243 330.435 432.188 330.435 432.188Z" fill="#E06A4F"/>
<path d="M264.808 368.129C272.129 364.73 267.423 352.702 259.84 346.166C252.258 339.367 241.538 338.322 241.276 340.936C241.276 343.812 261.671 369.698 264.808 368.129Z" fill="#9D544E"/>
<path d="M487.315 370.22C480.255 366.821 484.177 355.055 491.498 348.257C498.819 341.459 509.278 340.152 509.278 343.028C509.539 345.642 490.452 371.789 487.315 370.22Z" fill="#9D544E"/>
<path d="M465.614 509.582C461.953 506.968 435.807 509.321 408.876 514.289C381.945 519.257 335.665 520.564 335.665 520.564" stroke="#242424" stroke-width="0.5408" stroke-miterlimit="10" stroke-linecap="round" stroke-linejoin="round"/>
<path d="M364.688 355.317C368.871 361.854 400.508 372.835 418.288 368.652C436.068 364.468 426.917 355.578 426.917 355.578" stroke="#242424" stroke-width="0.5408" stroke-miterlimit="10" stroke-linecap="round" stroke-linejoin="round"/>
<path d="M345.6 367.344L325.99 454.936C325.99 454.936 328.605 421.468 326.513 412.317C322.853 396.89 345.6 367.344 345.6 367.344Z" fill="#242424"/>
<path d="M339.064 342.767C353.183 352.964 342.986 371.266 325.99 454.936C325.99 454.936 384.82 389.308 369.394 351.656C365.733 343.028 339.064 342.767 339.064 342.767Z" fill="#F8E68E"/>
<path d="M361.812 211.772C356.844 209.419 344.816 242.363 344.032 254.391C343.771 259.359 362.335 243.932 370.44 240.01C377.238 236.611 368.087 214.648 361.812 211.772Z" fill="black"/>
<path d="M347.953 303.546C350.568 300.932 355.013 304.069 357.627 309.037" stroke="#242424" stroke-width="0.5408" stroke-miterlimit="10" stroke-linecap="round" stroke-linejoin="round"/>
<path d="M351.615 308.253C351.615 306.423 354.491 304.593 356.322 306.946" stroke="#242424" stroke-width="0.5408" stroke-miterlimit="10" stroke-linecap="round" stroke-linejoin="round"/>
<path d="M324.944 445C324.944 445 354.229 389.307 349.261 349.042C347.169 332.046 363.118 335.184 371.747 346.95C384.82 364.468 372.793 419.899 325.99 454.936" stroke="#EAA833" stroke-miterlimit="10" stroke-linecap="round" stroke-linejoin="round"/>
</g>
<mask id="mask1_3096_14432" style="mask-type:alpha" maskUnits="userSpaceOnUse" x="177" y="199" width="406" height="279">
<rect x="177.515" y="199.201" width="405.352" height="278.09" fill="#D9D9D9"/>
</mask>
<g mask="url(#mask1_3096_14432)">
<path d="M308.211 367.083C293.83 400.812 285.725 492.848 304.028 511.151C351.353 557.692 435.545 487.619 453.848 457.027C464.829 438.463 455.94 378.587 428.486 339.367C415.674 321.065 335.404 302.762 308.211 367.083Z" fill="#F8E68E"/>
<path d="M349.523 528.408C332.527 529.715 303.243 526.839 299.844 488.142C296.445 449.445 308.211 337.537 361.812 324.464C415.412 311.391 446.788 344.335 456.463 367.344C466.398 390.615 410.183 523.44 349.523 528.408Z" stroke="#EAA833" stroke-miterlimit="10"/>
<path d="M336.449 521.086C322.853 516.903 308.734 487.88 310.825 454.674C312.917 421.468 324.945 358.454 335.665 347.211C346.385 335.968 362.334 337.014 376.453 341.459C390.573 345.904 421.687 328.124 433.453 350.087C445.742 372.051 336.449 521.086 336.449 521.086Z" fill="#F8E68E"/>
<path d="M324.944 525.532C317.1 511.674 300.628 498.339 318.669 398.197" stroke="#EAA833" stroke-miterlimit="10"/>
<path d="M536.21 263.281L520.522 283.152L504.834 265.373C507.449 264.065 511.632 261.712 515.554 257.006C519.999 251.776 518.692 248.377 519.215 245.501C523.921 252.299 531.504 257.006 536.21 263.281Z" fill="#FFCFAC"/>
<path d="M545.623 225.629C553.467 232.166 563.403 244.978 554.513 256.221C547.976 264.588 540.132 265.895 534.118 264.849C526.797 263.542 517.123 251.514 519.476 246.024C520.784 243.409 523.137 238.703 528.105 233.212C529.151 231.905 533.596 229.551 534.38 228.244C538.825 220.4 542.224 223.015 545.623 225.629Z" fill="#FFCFAC"/>
<path d="M551.113 260.143C560.526 255.175 575.691 246.547 574.645 240.533C573.338 233.212 555.558 247.331 551.113 248.639C546.93 249.685 551.113 260.143 551.113 260.143Z" fill="#FFCFAC"/>
<path d="M573.599 226.152C573.076 231.12 561.833 244.717 551.636 245.762C546.145 246.285 543.531 237.657 550.329 235.827C556.865 234.258 574.645 215.694 573.599 226.152Z" fill="#FFCFAC"/>
<path d="M547.976 239.226C560.788 230.336 568.632 212.817 564.448 208.373C560.265 204.189 550.068 224.583 541.701 232.689C533.072 241.317 547.976 239.226 547.976 239.226Z" fill="#FFCFAC"/>
<path d="M518.953 248.116C519.738 241.84 514.77 223.276 515.031 219.616C515.293 215.955 518.169 212.033 521.307 214.125C524.444 216.217 528.889 233.996 527.32 239.487C525.752 245.239 518.953 248.116 518.953 248.116Z" fill="#FFCFAC"/>
<path d="M534.117 228.244C536.732 224.845 538.301 222.23 540.131 215.432C542.484 206.281 549.805 200.267 549.805 209.418C549.805 220.4 545.883 229.29 542.484 230.859C539.085 232.428 534.117 228.244 534.117 228.244Z" fill="#FFCFAC"/>
<path d="M212.253 280.538L224.542 303.024L243.367 288.382C241.014 286.813 237.092 283.414 233.955 278.184C230.556 272.432 232.386 269.033 232.124 266.157C226.372 271.648 217.744 275.047 212.253 280.538Z" fill="#FFCFAC"/>
<path d="M208.854 241.579C199.702 246.547 187.675 257.529 194.473 270.34C199.441 279.753 207.285 282.368 213.56 282.368C221.404 282.368 233.17 272.432 231.601 266.418C230.817 263.542 228.986 258.574 225.064 252.038C224.28 250.73 220.097 247.593 219.574 246.024C216.698 237.657 212.776 239.487 208.854 241.579Z" fill="#FFCFAC"/>
<path d="M197.61 274.524C188.982 267.987 175.647 254.391 177.739 248.639C180.354 241.579 191.597 259.359 195.78 261.189C199.964 263.281 197.61 274.524 197.61 274.524Z" fill="#FFCFAC"/>
<path d="M181.399 234.258C180.092 239.226 187.413 258.313 197.349 261.189C202.578 262.758 208.069 253.606 201.532 250.73C195.519 248.116 183.753 224.845 181.399 234.258Z" fill="#FFCFAC"/>
<path d="M204.148 254.652C192.643 243.671 186.891 222.753 192.643 221.185C198.657 219.616 201.272 237.657 211.469 249.161C219.836 258.574 204.148 254.652 204.148 254.652Z" fill="#FFCFAC"/>
<path d="M231.862 268.51C232.124 262.235 240.229 244.978 240.752 241.056C241.014 237.134 238.922 233.212 235.261 234.52C231.601 236.088 224.28 252.561 225.064 258.574C225.849 264.588 231.862 268.51 231.862 268.51Z" fill="#FFCFAC"/>
<path d="M219.835 246.285C217.743 242.625 214.083 230.075 212.253 225.107C210.161 219.616 201.794 220.4 203.886 229.552C205.716 238.703 207.808 245.24 210.945 247.331C214.344 249.423 219.835 246.285 219.835 246.285Z" fill="#FFCFAC"/>
<path d="M535.686 266.418C535.686 266.418 518.691 248.116 513.723 253.084C509.539 257.528 506.925 260.666 506.925 260.666C506.925 260.666 525.489 275.57 530.457 282.629C530.718 282.891 538.562 274.262 535.686 266.418Z" fill="black"/>
<path d="M419.596 350.611C436.068 336.23 451.233 321.849 479.733 283.937C489.93 270.34 492.806 268.772 506.926 260.666C515.031 255.96 530.457 282.629 530.457 282.629C535.948 291.519 533.072 314.267 515.815 341.721C495.16 374.404 462.476 423.298 462.476 423.298C462.476 423.298 458.816 411.794 447.573 407.087C436.33 402.381 419.596 350.611 419.596 350.611Z" fill="#E06A4F"/>
<path d="M469.012 401.074C469.012 401.074 467.444 372.312 456.462 360.285" stroke="#242424" stroke-width="0.5408" stroke-miterlimit="10" stroke-linecap="round" stroke-linejoin="round"/>
<path d="M422.995 351.918L380.115 353.487L356.321 350.087L318.67 398.459C318.67 398.459 339.326 405.78 329.39 437.94C322.592 459.642 323.638 518.733 335.665 520.564C335.665 520.564 365.472 519.779 432.669 511.674C452.018 509.321 469.013 503.045 467.706 513.504C467.706 513.504 467.183 488.926 466.921 454.936C466.66 424.605 466.921 415.193 465.614 396.89C465.614 397.151 456.986 351.395 422.995 351.918Z" fill="#E06A4F"/>
<path d="M422.995 351.918C430.316 347.735 438.683 349.303 445.481 354.271C452.018 359.501 465.353 374.143 465.614 396.89C465.876 419.638 466.921 431.665 466.921 431.665C466.921 431.665 448.096 380.418 438.422 367.867C428.747 355.317 422.995 351.918 422.995 351.918Z" fill="#F8E68E"/>
<path d="M467.183 432.45C467.183 432.45 450.972 381.202 442.344 366.822C432.931 351.395 420.903 352.179 420.903 352.179C435.545 342.505 452.018 345.643 460.123 369.698C463.784 380.418 466.137 392.184 467.444 406.042" stroke="#EAA833" stroke-miterlimit="10" stroke-linecap="round" stroke-linejoin="round"/>
<path d="M366.519 329.955L377.239 354.533C383.775 361.331 403.908 364.207 409.138 363.161C416.72 361.854 423.257 359.239 421.949 357.147C419.858 350.088 416.459 337.799 414.105 330.739L366.519 329.955Z" fill="#FFCFAC"/>
<path d="M420.903 352.179L414.366 331L367.041 329.693L420.903 352.179Z" fill="#242424"/>
<path d="M346.385 264.588C351.353 242.886 366.518 217.524 380.375 206.542C397.109 193.208 412.274 209.419 405.215 222.492C405.215 222.492 424.825 214.648 430.315 221.185C435.806 227.721 415.935 247.07 413.843 249.162C411.49 251.515 346.385 264.588 346.385 264.588Z" fill="black"/>
<path d="M417.504 243.932C420.119 236.088 429.793 225.629 436.852 246.547C439.467 253.868 440.252 269.033 440.252 269.033L417.504 243.932Z" fill="black"/>
<path d="M380.376 239.749C359.197 242.886 338.28 262.758 346.385 295.964C355.014 330.478 368.871 341.198 401.293 338.583C437.375 335.707 447.834 306.684 448.096 290.996C448.357 272.955 431.362 243.409 412.798 239.226C404.954 237.395 391.619 238.18 380.376 239.749Z" fill="#FFCFAC"/>
<path d="M384.726 289.265C384.908 282.77 380.142 277.366 374.079 277.196C368.017 277.026 362.954 282.153 362.772 288.649C362.589 295.144 367.356 300.548 373.419 300.718C379.481 300.889 384.544 295.761 384.726 289.265Z" fill="#EBB3B0"/>
<path d="M440.239 288.004C443.496 286.821 444.618 281.681 442.745 276.523C440.871 271.365 436.712 268.144 433.455 269.327C430.197 270.51 429.075 275.65 430.949 280.808C432.822 285.965 436.981 289.187 440.239 288.004Z" fill="#EBB3B0"/>
<path d="M350.046 300.148C353.445 305.638 355.276 296.487 356.322 292.304C358.152 285.506 348.216 277.139 348.216 277.139C348.216 277.139 355.537 264.588 357.629 257.267C359.982 249.946 356.845 247.07 353.184 250.731C353.184 250.731 342.725 224.845 335.927 242.102C328.868 260.143 337.496 285.767 337.496 285.767C337.496 285.767 333.313 287.597 334.097 295.964C334.881 304.07 359.982 330.216 362.074 331.785C380.377 344.336 350.046 300.148 350.046 300.148Z" fill="black"/>
<path d="M431.623 252.822C429.532 249.946 426.917 247.07 423.779 245.762C419.857 243.932 416.458 246.285 415.935 250.469C415.674 251.776 417.504 252.822 418.289 251.515C418.812 250.207 419.596 248.377 421.165 248.377C422.472 248.116 424.041 249.161 425.087 249.946C427.179 251.253 428.747 253.083 430.578 254.652C431.362 255.175 432.408 253.868 431.623 252.822Z" fill="#242424"/>
<path d="M388.742 253.606C382.99 248.116 374.885 246.285 368.086 250.992C362.596 254.652 358.412 262.235 359.72 269.033C359.72 269.556 360.765 269.556 360.765 269.033C362.596 263.804 364.164 258.836 368.609 254.914C374.623 249.423 381.16 251.776 387.174 255.698C388.481 256.483 389.788 254.652 388.742 253.606Z" fill="#242424"/>
<path d="M364.165 315.313C356.844 320.28 347.692 311.652 344.816 306.684C341.94 301.716 345.078 292.304 354.49 298.579L364.165 315.313Z" fill="#FFCFAC"/>
<path d="M334.619 283.675C327.56 276.093 328.344 269.817 328.344 269.817L334.619 283.675Z" fill="black"/>
<path d="M330.697 287.074C323.376 287.859 320.762 292.827 320.762 292.827L330.697 287.074Z" fill="black"/>
<path d="M378.546 335.446C378.546 335.446 387.959 339.629 403.908 341.198" stroke="#242424" stroke-width="0.5408" stroke-miterlimit="10" stroke-linecap="round" stroke-linejoin="round"/>
<path d="M423.256 312.959C420.38 314.79 414.889 315.836 408.614 314.79C404.169 314.005 399.201 312.175 394.756 308.776C387.958 303.547 385.082 297.271 382.206 291.258C381.944 290.473 381.422 289.689 381.944 288.904C382.206 288.12 382.729 287.859 383.513 287.597C391.357 283.414 399.201 280.015 407.83 278.707C415.412 277.661 422.995 278.184 429.793 281.322C431.362 282.106 432.407 283.414 432.407 285.244C432.93 291.258 434.761 305.377 423.256 312.959Z" fill="#242424"/>
<path d="M423.257 312.959C420.381 314.79 414.89 315.835 408.615 314.79C404.17 314.005 399.202 312.175 394.757 308.776C394.757 308.776 398.417 300.932 407.83 302.762C417.243 304.592 423.257 312.959 423.257 312.959Z" fill="#EBB3B0"/>
<path d="M388.481 264.326C386.389 261.973 383.252 261.973 380.637 263.281C378.284 264.327 376.192 266.68 375.669 269.033C375.408 269.556 375.931 270.34 376.454 270.602C376.976 270.863 377.761 270.34 378.022 269.817C378.022 269.556 378.022 269.294 378.284 269.033C378.284 268.771 378.284 269.294 378.284 269.033C378.284 269.033 378.284 268.771 378.545 268.771C378.807 268.248 379.068 267.987 379.33 267.726C380.114 266.941 380.898 266.418 381.683 265.895C382.206 265.634 382.467 265.634 382.99 265.372C383.252 265.372 383.252 265.372 383.513 265.372C383.513 265.372 384.036 265.372 383.775 265.372C384.036 265.372 384.298 265.372 384.559 265.372H384.82C384.559 265.372 385.082 265.372 385.082 265.372C385.343 265.372 385.343 265.372 385.605 265.372C385.605 265.372 385.866 265.634 385.866 265.372C386.389 265.634 386.651 265.895 387.174 266.157C387.697 267.203 389.527 265.634 388.481 264.326Z" fill="#242424"/>
<path d="M425.61 261.189C425.348 261.45 425.61 261.189 425.61 261.189C425.61 260.927 425.61 260.927 425.61 261.189C425.871 260.927 425.871 260.666 425.61 261.189C425.871 260.927 425.871 260.927 426.133 260.927C426.133 260.927 426.394 260.927 426.133 260.927C425.871 260.927 426.133 260.927 426.133 260.927H426.394C426.133 260.927 426.655 260.927 426.394 260.927C426.655 260.927 426.655 260.927 426.917 260.927C426.917 260.927 427.178 260.927 426.917 260.927H427.178C427.44 260.927 427.44 260.927 427.701 261.189C427.701 261.189 427.963 261.45 427.701 261.189H427.963C428.224 261.45 428.747 261.45 429.009 261.712C429.009 261.712 429.27 261.712 429.27 261.973C429.27 261.973 429.532 262.235 429.27 261.973C429.532 262.235 429.532 262.235 429.793 262.496C430.577 263.019 431.1 263.803 431.623 264.326C432.146 264.849 432.931 264.849 433.454 264.326C433.977 263.803 433.977 263.019 433.454 262.496C432.146 260.927 430.577 259.359 428.747 258.574C427.963 258.313 426.917 258.051 426.133 258.313C425.087 258.574 424.302 259.097 423.779 259.881C423.518 260.404 423.779 261.189 424.302 261.45C424.564 261.973 425.087 261.712 425.61 261.189Z" fill="#242424"/>
<path d="M408.091 254.13C408.091 258.836 424.825 263.281 422.994 265.634C421.164 267.987 416.458 271.909 414.105 273.478" stroke="black" stroke-width="1.0831" stroke-miterlimit="10" stroke-linecap="round" stroke-linejoin="round"/>
<path d="M430.316 292.042C430.316 288.12 430.577 285.505 429.532 283.937C428.486 282.368 415.674 278.969 404.692 282.106C393.972 285.244 385.344 290.212 385.344 290.212L389.266 297.271C389.266 297.271 399.201 289.95 412.275 289.166C424.564 288.382 430.316 292.042 430.316 292.042Z" fill="#FFCFAC"/>
<path d="M244.151 276.877C240.229 268.51 233.954 266.68 226.11 270.863C218.266 275.047 208.069 277.4 209.114 284.721C209.899 292.042 220.096 302.239 220.096 302.239L244.151 276.877Z" fill="black"/>
<path d="M330.435 432.188C330.435 432.188 278.403 394.798 250.688 357.931C222.972 321.065 214.605 295.964 214.605 295.964C214.605 295.964 236.83 272.17 243.105 277.661C269.252 300.409 297.752 320.542 297.752 320.542C297.752 320.542 336.187 340.675 343.247 345.12C373.054 363.161 359.981 368.913 357.366 375.711C348.476 399.243 330.435 432.188 330.435 432.188Z" fill="#E06A4F"/>
<path d="M528.104 233.212C528.104 233.212 542.485 233.997 540.916 246.808" stroke="#242424" stroke-width="0.5408" stroke-miterlimit="10" stroke-linecap="round" stroke-linejoin="round"/>
<path d="M225.326 252.299C225.326 252.299 212.253 249.161 212.515 263.803" stroke="#242424" stroke-width="0.5481" stroke-miterlimit="10" stroke-linecap="round" stroke-linejoin="round"/>
<path d="M264.808 368.129C272.129 364.73 267.423 352.702 259.84 346.166C252.258 339.367 241.538 338.322 241.276 340.936C241.276 343.812 261.671 369.698 264.808 368.129Z" fill="#9D544E"/>
<path d="M487.315 370.22C480.255 366.821 484.177 355.055 491.498 348.257C498.819 341.459 509.278 340.152 509.278 343.028C509.539 345.642 490.452 371.789 487.315 370.22Z" fill="#9D544E"/>
<path d="M364.688 355.317C368.872 361.854 400.509 372.835 418.289 368.652C436.069 364.468 426.917 355.578 426.917 355.578" stroke="#242424" stroke-width="0.5408" stroke-miterlimit="10" stroke-linecap="round" stroke-linejoin="round"/>
<path d="M345.6 367.344L325.99 454.936C325.99 454.936 328.605 421.468 326.513 412.317C322.853 396.89 345.6 367.344 345.6 367.344Z" fill="#242424"/>
<path d="M339.064 342.767C353.183 352.964 342.986 371.266 325.99 454.936C325.99 454.936 384.82 389.308 369.394 351.656C365.733 343.028 339.064 342.767 339.064 342.767Z" fill="#F8E68E"/>
<path d="M361.812 211.772C356.844 209.419 344.816 242.363 344.032 254.391C343.771 259.359 362.335 243.932 370.44 240.01C377.238 236.611 368.087 214.648 361.812 211.772Z" fill="black"/>
<path d="M347.953 303.546C350.568 300.932 355.013 304.069 357.627 309.037" stroke="#242424" stroke-width="0.5408" stroke-miterlimit="10" stroke-linecap="round" stroke-linejoin="round"/>
<path d="M351.615 308.253C351.615 306.423 354.491 304.593 356.322 306.946" stroke="#242424" stroke-width="0.5408" stroke-miterlimit="10" stroke-linecap="round" stroke-linejoin="round"/>
<path d="M324.944 445C324.944 445 354.229 389.308 349.261 349.042C347.169 332.046 363.118 335.184 371.747 346.95C384.82 364.468 372.793 419.899 325.99 454.936" stroke="#EAA833" stroke-miterlimit="10" stroke-linecap="round" stroke-linejoin="round"/>
</g>
</svg>
